<svg class="w-4 h-4 text-center m-0 text-gray-400 inline-block" viewBox="0 0 16 15" fill="none" xmlns="http://www.w3.org/2000/svg"><path d="M13.451 3.57584C11.4598 3.37851 9.45655 3.27686 7.45932 3.27686C6.27534 3.27686 5.09135 3.33665 3.90736 3.45625L2.6875 3.57584" stroke="#2F365F" stroke-width="0.896959" stroke-linecap="round" stroke-linejoin="round"></path><path d="M5.97656 2.97178L6.10812 2.18844C6.20379 1.62036 6.27555 1.1958 7.28612 1.1958H8.85281C9.86339 1.1958 9.94112 1.64428 10.0308 2.19442L10.1624 2.97178" stroke="#2F365F" stroke-width="0.896959" stroke-linecap="round" stroke-linejoin="round"></path><path d="M12.161 5.46533L11.7723 11.4869C11.7065 12.4257 11.6527 13.1553 9.98436 13.1553H6.14537C4.47703 13.1553 4.42321 12.4257 4.35743 11.4869L3.96875 5.46533" stroke="#2F365F" stroke-width="0.896959" stroke-linecap="round" stroke-linejoin="round"></path><path d="M7.07031 9.86621H9.06156" stroke="#2F365F" stroke-width="0.896959" stroke-linecap="round" stroke-linejoin="round"></path><path d="M6.57031 7.47461H9.56018" stroke="#2F365F" stroke-width="0.896959" stroke-linecap="round" stroke-linejoin="round"></path></svg>