<svg class="w-20 h-20 m-auto text-center mt-3" viewBox="0 0 82 96" fill="none" xmlns="http://www.w3.org/2000/svg"><path d="M46.9493 0.5C48.125 0.5 49.1126 1.4975 49.1126 2.685V17.98C49.1126 26.6725 56.1671 33.7975 64.8205 33.845C68.3478 33.845 71.1696 33.8925 73.3329 33.8925C74.7908 33.8925 77.1894 33.845 79.2116 33.845C80.3874 33.845 81.375 34.795 81.375 35.9825V74.1725C81.375 85.9525 71.875 95.5 60.2116 95.5H22.823C10.5483 95.5 0.625 85.4775 0.625 73.1275V21.9225C0.625 10.1425 10.078 0.5 21.8354 0.5H46.9493ZM39.2834 32.515C38.8131 32.515 38.3428 32.61 37.9196 32.8C37.4963 32.99 37.12 33.2275 36.7908 33.56L23.3403 47.24C21.9765 48.6175 21.9765 50.85 23.3403 52.2275C24.7042 53.605 26.9146 53.605 28.2785 52.2275L35.7562 44.6275V67.57C35.7562 69.5175 37.3082 71.085 39.2834 71.085C41.2116 71.085 42.7636 69.5175 42.7636 67.57V44.6275L50.2413 52.2275C51.6052 53.605 53.8156 53.605 55.1795 52.2275C56.5903 50.85 56.5903 48.6175 55.2265 47.24L41.729 33.56C41.3998 33.2275 41.0235 32.99 40.6003 32.8C40.177 32.61 39.7537 32.515 39.2834 32.515ZM55.9399 4.8035C55.9399 2.75625 58.3949 1.73975 59.8011 3.217C64.8897 8.556 73.7736 17.8897 78.7399 23.1052C80.1085 24.5445 79.1021 26.9338 77.1221 26.9385C73.2563 26.9527 68.7038 26.9385 65.4258 26.9053C60.2243 26.9053 55.9399 22.578 55.9399 17.3245V4.8035Z" fill="#6574CD"></path></svg>